<mxfile host="app.diagrams.net" modified="2024-02-23T13:16:21.054Z" agent="Mozilla/5.0 (Windows NT 10.0; Win64; x64) AppleWebKit/537.36 (KHTML, like Gecko) Chrome/121.0.0.0 Safari/537.36" etag="WjC6qOmLtBgM6q-eQxKQ" version="23.1.6" type="device">
  <diagram name="Página-1" id="Tpa8nJgiLnycy8y-Sa2b">
    <mxGraphModel dx="1867" dy="3171" grid="1" gridSize="10" guides="1" tooltips="1" connect="1" arrows="1" fold="1" page="1" pageScale="1" pageWidth="827" pageHeight="1169" math="0" shadow="0">
      <root>
        <mxCell id="0" />
        <mxCell id="1" parent="0" />
        <mxCell id="evB92wIl7mGRJdlGN25G-73" value="Controla&amp;nbsp;" style="swimlane;fontStyle=1;childLayout=stackLayout;horizontal=1;startSize=26;fillColor=none;horizontalStack=0;resizeParent=1;resizeParentMax=0;resizeLast=0;collapsible=1;marginBottom=0;html=1;" vertex="1" parent="1">
          <mxGeometry x="580" y="-640" width="310" height="1130" as="geometry" />
        </mxCell>
        <mxCell id="evB92wIl7mGRJdlGN25G-74" value="- p1: Player |" style="text;strokeColor=none;fillColor=none;align=left;verticalAlign=top;spacingLeft=4;spacingRight=4;overflow=hidden;rotatable=0;points=[[0,0.5],[1,0.5]];portConstraint=eastwest;whiteSpace=wrap;html=1;" vertex="1" parent="evB92wIl7mGRJdlGN25G-73">
          <mxGeometry y="26" width="310" height="26" as="geometry" />
        </mxCell>
        <mxCell id="evB92wIl7mGRJdlGN25G-75" value="- p2: Player |" style="text;strokeColor=none;fillColor=none;align=left;verticalAlign=top;spacingLeft=4;spacingRight=4;overflow=hidden;rotatable=0;points=[[0,0.5],[1,0.5]];portConstraint=eastwest;whiteSpace=wrap;html=1;" vertex="1" parent="evB92wIl7mGRJdlGN25G-73">
          <mxGeometry y="52" width="310" height="26" as="geometry" />
        </mxCell>
        <mxCell id="evB92wIl7mGRJdlGN25G-78" value="- m1: Papel |" style="text;strokeColor=none;fillColor=none;align=left;verticalAlign=top;spacingLeft=4;spacingRight=4;overflow=hidden;rotatable=0;points=[[0,0.5],[1,0.5]];portConstraint=eastwest;whiteSpace=wrap;html=1;" vertex="1" parent="evB92wIl7mGRJdlGN25G-73">
          <mxGeometry y="78" width="310" height="32" as="geometry" />
        </mxCell>
        <mxCell id="evB92wIl7mGRJdlGN25G-79" value="- escolha: int |" style="text;strokeColor=none;fillColor=none;align=left;verticalAlign=top;spacingLeft=4;spacingRight=4;overflow=hidden;rotatable=0;points=[[0,0.5],[1,0.5]];portConstraint=eastwest;whiteSpace=wrap;html=1;" vertex="1" parent="evB92wIl7mGRJdlGN25G-73">
          <mxGeometry y="110" width="310" height="32" as="geometry" />
        </mxCell>
        <mxCell id="evB92wIl7mGRJdlGN25G-80" value="- p: bool |" style="text;strokeColor=none;fillColor=none;align=left;verticalAlign=top;spacingLeft=4;spacingRight=4;overflow=hidden;rotatable=0;points=[[0,0.5],[1,0.5]];portConstraint=eastwest;whiteSpace=wrap;html=1;" vertex="1" parent="evB92wIl7mGRJdlGN25G-73">
          <mxGeometry y="142" width="310" height="32" as="geometry" />
        </mxCell>
        <mxCell id="evB92wIl7mGRJdlGN25G-77" value="- vitoria: bool |&lt;br&gt;+-----------------------------------+" style="text;strokeColor=none;fillColor=none;align=left;verticalAlign=top;spacingLeft=4;spacingRight=4;overflow=hidden;rotatable=0;points=[[0,0.5],[1,0.5]];portConstraint=eastwest;whiteSpace=wrap;html=1;" vertex="1" parent="evB92wIl7mGRJdlGN25G-73">
          <mxGeometry y="174" width="310" height="32" as="geometry" />
        </mxCell>
        <mxCell id="evB92wIl7mGRJdlGN25G-81" value="+ Controla(Player[], Papel) |" style="text;strokeColor=none;fillColor=none;align=left;verticalAlign=top;spacingLeft=4;spacingRight=4;overflow=hidden;rotatable=0;points=[[0,0.5],[1,0.5]];portConstraint=eastwest;whiteSpace=wrap;html=1;" vertex="1" parent="evB92wIl7mGRJdlGN25G-73">
          <mxGeometry y="206" width="310" height="34" as="geometry" />
        </mxCell>
        <mxCell id="evB92wIl7mGRJdlGN25G-83" value="+ Menu(View): void |" style="text;strokeColor=none;fillColor=none;align=left;verticalAlign=top;spacingLeft=4;spacingRight=4;overflow=hidden;rotatable=0;points=[[0,0.5],[1,0.5]];portConstraint=eastwest;whiteSpace=wrap;html=1;" vertex="1" parent="evB92wIl7mGRJdlGN25G-73">
          <mxGeometry y="240" width="310" height="26" as="geometry" />
        </mxCell>
        <mxCell id="evB92wIl7mGRJdlGN25G-84" value="+ Jogo(View): void |" style="text;strokeColor=none;fillColor=none;align=left;verticalAlign=top;spacingLeft=4;spacingRight=4;overflow=hidden;rotatable=0;points=[[0,0.5],[1,0.5]];portConstraint=eastwest;whiteSpace=wrap;html=1;" vertex="1" parent="evB92wIl7mGRJdlGN25G-73">
          <mxGeometry y="266" width="310" height="34" as="geometry" />
        </mxCell>
        <mxCell id="evB92wIl7mGRJdlGN25G-82" value="| + Victory(Player, View, Papel): void&amp;nbsp;" style="text;strokeColor=none;fillColor=none;align=left;verticalAlign=top;spacingLeft=4;spacingRight=4;overflow=hidden;rotatable=0;points=[[0,0.5],[1,0.5]];portConstraint=eastwest;whiteSpace=wrap;html=1;" vertex="1" parent="evB92wIl7mGRJdlGN25G-73">
          <mxGeometry y="300" width="310" height="40" as="geometry" />
        </mxCell>
        <mxCell id="evB92wIl7mGRJdlGN25G-86" value="| + Empate(): bool |" style="text;strokeColor=none;fillColor=none;align=left;verticalAlign=top;spacingLeft=4;spacingRight=4;overflow=hidden;rotatable=0;points=[[0,0.5],[1,0.5]];portConstraint=eastwest;whiteSpace=wrap;html=1;" vertex="1" parent="evB92wIl7mGRJdlGN25G-73">
          <mxGeometry y="340" width="310" height="54" as="geometry" />
        </mxCell>
        <mxCell id="evB92wIl7mGRJdlGN25G-85" value="+-----------------------------------+&lt;br style=&quot;border-color: var(--border-color); font-family: &amp;quot;Söhne Mono&amp;quot;, Monaco, &amp;quot;Andale Mono&amp;quot;, &amp;quot;Ubuntu Mono&amp;quot;, monospace; font-size: 14px;&quot;&gt;&lt;br style=&quot;border-color: var(--border-color); font-family: &amp;quot;Söhne Mono&amp;quot;, Monaco, &amp;quot;Andale Mono&amp;quot;, &amp;quot;Ubuntu Mono&amp;quot;, monospace; font-size: 14px;&quot;&gt;&lt;span style=&quot;font-family: &amp;quot;Söhne Mono&amp;quot;, Monaco, &amp;quot;Andale Mono&amp;quot;, &amp;quot;Ubuntu Mono&amp;quot;, monospace; font-size: 14px; background-color: rgb(255, 255, 255);&quot;&gt;+-----------------------------------+&lt;/span&gt;" style="text;strokeColor=none;fillColor=none;align=left;verticalAlign=top;spacingLeft=4;spacingRight=4;overflow=hidden;rotatable=0;points=[[0,0.5],[1,0.5]];portConstraint=eastwest;whiteSpace=wrap;html=1;" vertex="1" parent="evB92wIl7mGRJdlGN25G-73">
          <mxGeometry y="394" width="310" height="26" as="geometry" />
        </mxCell>
        <mxCell id="evB92wIl7mGRJdlGN25G-92" value="| Player |" style="text;strokeColor=none;fillColor=none;align=left;verticalAlign=top;spacingLeft=4;spacingRight=4;overflow=hidden;rotatable=0;points=[[0,0.5],[1,0.5]];portConstraint=eastwest;whiteSpace=wrap;html=1;" vertex="1" parent="evB92wIl7mGRJdlGN25G-73">
          <mxGeometry y="420" width="310" height="30" as="geometry" />
        </mxCell>
        <mxCell id="evB92wIl7mGRJdlGN25G-112" value="| - simbulo: char |" style="text;strokeColor=none;fillColor=none;align=left;verticalAlign=top;spacingLeft=4;spacingRight=4;overflow=hidden;rotatable=0;points=[[0,0.5],[1,0.5]];portConstraint=eastwest;whiteSpace=wrap;html=1;" vertex="1" parent="evB92wIl7mGRJdlGN25G-73">
          <mxGeometry y="450" width="310" height="30" as="geometry" />
        </mxCell>
        <mxCell id="evB92wIl7mGRJdlGN25G-109" value="| + DefiNome(string): void |" style="text;strokeColor=none;fillColor=none;align=left;verticalAlign=top;spacingLeft=4;spacingRight=4;overflow=hidden;rotatable=0;points=[[0,0.5],[1,0.5]];portConstraint=eastwest;whiteSpace=wrap;html=1;" vertex="1" parent="evB92wIl7mGRJdlGN25G-73">
          <mxGeometry y="480" width="310" height="30" as="geometry" />
        </mxCell>
        <mxCell id="evB92wIl7mGRJdlGN25G-87" value="+-----------------------------------+" style="text;strokeColor=none;fillColor=none;align=left;verticalAlign=top;spacingLeft=4;spacingRight=4;overflow=hidden;rotatable=0;points=[[0,0.5],[1,0.5]];portConstraint=eastwest;whiteSpace=wrap;html=1;" vertex="1" parent="evB92wIl7mGRJdlGN25G-73">
          <mxGeometry y="510" width="310" height="40" as="geometry" />
        </mxCell>
        <mxCell id="evB92wIl7mGRJdlGN25G-89" value="+-----------------------------------+" style="text;strokeColor=none;fillColor=none;align=left;verticalAlign=top;spacingLeft=4;spacingRight=4;overflow=hidden;rotatable=0;points=[[0,0.5],[1,0.5]];portConstraint=eastwest;whiteSpace=wrap;html=1;" vertex="1" parent="evB92wIl7mGRJdlGN25G-73">
          <mxGeometry y="550" width="310" height="30" as="geometry" />
        </mxCell>
        <mxCell id="evB92wIl7mGRJdlGN25G-110" value="| Papel |" style="text;strokeColor=none;fillColor=none;align=left;verticalAlign=top;spacingLeft=4;spacingRight=4;overflow=hidden;rotatable=0;points=[[0,0.5],[1,0.5]];portConstraint=eastwest;whiteSpace=wrap;html=1;" vertex="1" parent="evB92wIl7mGRJdlGN25G-73">
          <mxGeometry y="580" width="310" height="30" as="geometry" />
        </mxCell>
        <mxCell id="evB92wIl7mGRJdlGN25G-90" value="| - Arry: char[] |" style="text;strokeColor=none;fillColor=none;align=left;verticalAlign=top;spacingLeft=4;spacingRight=4;overflow=hidden;rotatable=0;points=[[0,0.5],[1,0.5]];portConstraint=eastwest;whiteSpace=wrap;html=1;" vertex="1" parent="evB92wIl7mGRJdlGN25G-73">
          <mxGeometry y="610" width="310" height="30" as="geometry" />
        </mxCell>
        <mxCell id="evB92wIl7mGRJdlGN25G-76" value="| + jogada(int, Player): bool&amp;nbsp;" style="text;strokeColor=none;fillColor=none;align=left;verticalAlign=top;spacingLeft=4;spacingRight=4;overflow=hidden;rotatable=0;points=[[0,0.5],[1,0.5]];portConstraint=eastwest;whiteSpace=wrap;html=1;" vertex="1" parent="evB92wIl7mGRJdlGN25G-73">
          <mxGeometry y="640" width="310" height="30" as="geometry" />
        </mxCell>
        <mxCell id="evB92wIl7mGRJdlGN25G-88" value="+-----------------------------------+" style="text;strokeColor=none;fillColor=none;align=left;verticalAlign=top;spacingLeft=4;spacingRight=4;overflow=hidden;rotatable=0;points=[[0,0.5],[1,0.5]];portConstraint=eastwest;whiteSpace=wrap;html=1;" vertex="1" parent="evB92wIl7mGRJdlGN25G-73">
          <mxGeometry y="670" width="310" height="30" as="geometry" />
        </mxCell>
        <mxCell id="evB92wIl7mGRJdlGN25G-91" value="+-----------------------------------+" style="text;strokeColor=none;fillColor=none;align=left;verticalAlign=top;spacingLeft=4;spacingRight=4;overflow=hidden;rotatable=0;points=[[0,0.5],[1,0.5]];portConstraint=eastwest;whiteSpace=wrap;html=1;" vertex="1" parent="evB92wIl7mGRJdlGN25G-73">
          <mxGeometry y="700" width="310" height="30" as="geometry" />
        </mxCell>
        <mxCell id="evB92wIl7mGRJdlGN25G-93" value="| View |" style="text;strokeColor=none;fillColor=none;align=left;verticalAlign=top;spacingLeft=4;spacingRight=4;overflow=hidden;rotatable=0;points=[[0,0.5],[1,0.5]];portConstraint=eastwest;whiteSpace=wrap;html=1;" vertex="1" parent="evB92wIl7mGRJdlGN25G-73">
          <mxGeometry y="730" width="310" height="30" as="geometry" />
        </mxCell>
        <mxCell id="evB92wIl7mGRJdlGN25G-113" value="+-----------------------------------+" style="text;strokeColor=none;fillColor=none;align=left;verticalAlign=top;spacingLeft=4;spacingRight=4;overflow=hidden;rotatable=0;points=[[0,0.5],[1,0.5]];portConstraint=eastwest;whiteSpace=wrap;html=1;" vertex="1" parent="evB92wIl7mGRJdlGN25G-73">
          <mxGeometry y="760" width="310" height="30" as="geometry" />
        </mxCell>
        <mxCell id="evB92wIl7mGRJdlGN25G-111" value="+-----------------------------------+" style="text;strokeColor=none;fillColor=none;align=left;verticalAlign=top;spacingLeft=4;spacingRight=4;overflow=hidden;rotatable=0;points=[[0,0.5],[1,0.5]];portConstraint=eastwest;whiteSpace=wrap;html=1;" vertex="1" parent="evB92wIl7mGRJdlGN25G-73">
          <mxGeometry y="790" width="310" height="30" as="geometry" />
        </mxCell>
        <mxCell id="evB92wIl7mGRJdlGN25G-114" value="| + Nome(): string |" style="text;strokeColor=none;fillColor=none;align=left;verticalAlign=top;spacingLeft=4;spacingRight=4;overflow=hidden;rotatable=0;points=[[0,0.5],[1,0.5]];portConstraint=eastwest;whiteSpace=wrap;html=1;" vertex="1" parent="evB92wIl7mGRJdlGN25G-73">
          <mxGeometry y="820" width="310" height="30" as="geometry" />
        </mxCell>
        <mxCell id="evB92wIl7mGRJdlGN25G-94" value="| + Escolha(): int |" style="text;whiteSpace=wrap;html=1;" vertex="1" parent="evB92wIl7mGRJdlGN25G-73">
          <mxGeometry y="850" width="310" height="40" as="geometry" />
        </mxCell>
        <mxCell id="evB92wIl7mGRJdlGN25G-116" value="| + Joge(Player): int |" style="text;whiteSpace=wrap;html=1;" vertex="1" parent="evB92wIl7mGRJdlGN25G-73">
          <mxGeometry y="890" width="310" height="40" as="geometry" />
        </mxCell>
        <mxCell id="evB92wIl7mGRJdlGN25G-129" value="&#xa;&lt;span style=&quot;color: rgb(0, 0, 0); font-family: Helvetica; font-size: 12px; font-style: normal; font-variant-ligatures: normal; font-variant-caps: normal; font-weight: 400; letter-spacing: normal; orphans: 2; text-align: left; text-indent: 0px; text-transform: none; widows: 2; word-spacing: 0px; -webkit-text-stroke-width: 0px; background-color: rgb(251, 251, 251); text-decoration-thickness: initial; text-decoration-style: initial; text-decoration-color: initial; float: none; display: inline !important;&quot;&gt;+--------------------------------+&lt;/span&gt;&lt;br style=&quot;border-color: var(--border-color); padding: 0px; margin: 0px; color: rgb(0, 0, 0); font-family: Helvetica; font-size: 12px; font-style: normal; font-variant-ligatures: normal; font-variant-caps: normal; font-weight: 400; letter-spacing: normal; orphans: 2; text-align: left; text-indent: 0px; text-transform: none; widows: 2; word-spacing: 0px; -webkit-text-stroke-width: 0px; background-color: rgb(251, 251, 251); text-decoration-thickness: initial; text-decoration-style: initial; text-decoration-color: initial;&quot;&gt;&#xa;&#xa;" style="text;whiteSpace=wrap;html=1;" vertex="1" parent="evB92wIl7mGRJdlGN25G-73">
          <mxGeometry y="930" width="310" height="40" as="geometry" />
        </mxCell>
        <mxCell id="evB92wIl7mGRJdlGN25G-130" value="| + Mostra(Papel): void |" style="text;whiteSpace=wrap;html=1;" vertex="1" parent="evB92wIl7mGRJdlGN25G-73">
          <mxGeometry y="970" width="310" height="40" as="geometry" />
        </mxCell>
        <mxCell id="evB92wIl7mGRJdlGN25G-120" value="| + Mostra(Papel): void |" style="text;whiteSpace=wrap;html=1;" vertex="1" parent="evB92wIl7mGRJdlGN25G-73">
          <mxGeometry y="1010" width="310" height="40" as="geometry" />
        </mxCell>
        <mxCell id="evB92wIl7mGRJdlGN25G-118" value="| + gamede(Player): void |" style="text;whiteSpace=wrap;html=1;" vertex="1" parent="evB92wIl7mGRJdlGN25G-73">
          <mxGeometry y="1050" width="310" height="40" as="geometry" />
        </mxCell>
        <mxCell id="evB92wIl7mGRJdlGN25G-119" value="| + vic(Player): void |&lt;br style=&quot;border-color: var(--border-color); font-family: &amp;quot;Söhne Mono&amp;quot;, Monaco, &amp;quot;Andale Mono&amp;quot;, &amp;quot;Ubuntu Mono&amp;quot;, monospace; font-size: 14px;&quot;&gt;&lt;span style=&quot;font-family: &amp;quot;Söhne Mono&amp;quot;, Monaco, &amp;quot;Andale Mono&amp;quot;, &amp;quot;Ubuntu Mono&amp;quot;, monospace; font-size: 14px; background-color: rgb(255, 255, 255);&quot;&gt;+-----------------------------------+&lt;/span&gt;" style="text;whiteSpace=wrap;html=1;" vertex="1" parent="evB92wIl7mGRJdlGN25G-73">
          <mxGeometry y="1090" width="310" height="40" as="geometry" />
        </mxCell>
        <mxCell id="evB92wIl7mGRJdlGN25G-122" style="edgeStyle=orthogonalEdgeStyle;rounded=0;orthogonalLoop=1;jettySize=auto;html=1;" edge="1" parent="1">
          <mxGeometry relative="1" as="geometry">
            <mxPoint x="770" y="335" as="sourcePoint" />
            <mxPoint x="770" y="355" as="targetPoint" />
          </mxGeometry>
        </mxCell>
        <mxCell id="evB92wIl7mGRJdlGN25G-123" value="View&amp;nbsp;" style="swimlane;fontStyle=0;childLayout=stackLayout;horizontal=1;startSize=26;fillColor=none;horizontalStack=0;resizeParent=1;resizeParentMax=0;resizeLast=0;collapsible=1;marginBottom=0;html=1;" vertex="1" parent="1">
          <mxGeometry x="290" y="-500" width="210" height="460" as="geometry" />
        </mxCell>
        <mxCell id="evB92wIl7mGRJdlGN25G-124" value="+--------------------------------+" style="text;strokeColor=none;fillColor=none;align=left;verticalAlign=top;spacingLeft=4;spacingRight=4;overflow=hidden;rotatable=0;points=[[0,0.5],[1,0.5]];portConstraint=eastwest;whiteSpace=wrap;html=1;" vertex="1" parent="evB92wIl7mGRJdlGN25G-123">
          <mxGeometry y="26" width="210" height="26" as="geometry" />
        </mxCell>
        <mxCell id="evB92wIl7mGRJdlGN25G-125" value="| - controla: Controla&amp;nbsp; &amp;nbsp; &amp;nbsp; &amp;nbsp; &amp;nbsp; &amp;nbsp;|" style="text;strokeColor=none;fillColor=none;align=left;verticalAlign=top;spacingLeft=4;spacingRight=4;overflow=hidden;rotatable=0;points=[[0,0.5],[1,0.5]];portConstraint=eastwest;whiteSpace=wrap;html=1;" vertex="1" parent="evB92wIl7mGRJdlGN25G-123">
          <mxGeometry y="52" width="210" height="26" as="geometry" />
        </mxCell>
        <mxCell id="evB92wIl7mGRJdlGN25G-126" value="+--------------------------------+" style="text;strokeColor=none;fillColor=none;align=left;verticalAlign=top;spacingLeft=4;spacingRight=4;overflow=hidden;rotatable=0;points=[[0,0.5],[1,0.5]];portConstraint=eastwest;whiteSpace=wrap;html=1;" vertex="1" parent="evB92wIl7mGRJdlGN25G-123">
          <mxGeometry y="78" width="210" height="26" as="geometry" />
        </mxCell>
        <mxCell id="evB92wIl7mGRJdlGN25G-127" value="| + View(con: Controla)" style="text;whiteSpace=wrap;html=1;" vertex="1" parent="evB92wIl7mGRJdlGN25G-123">
          <mxGeometry y="104" width="210" height="26" as="geometry" />
        </mxCell>
        <mxCell id="evB92wIl7mGRJdlGN25G-128" value="&lt;br&gt;&lt;div&gt;&lt;br/&gt;&lt;/div&gt;" style="text;whiteSpace=wrap;html=1;" vertex="1" parent="evB92wIl7mGRJdlGN25G-123">
          <mxGeometry y="130" width="210" height="20" as="geometry" />
        </mxCell>
        <mxCell id="evB92wIl7mGRJdlGN25G-131" value="| + Nome(): string&amp;nbsp; &amp;nbsp; &amp;nbsp; &amp;nbsp; &amp;nbsp; &amp;nbsp; &amp;nbsp; &amp;nbsp;|" style="text;whiteSpace=wrap;html=1;" vertex="1" parent="evB92wIl7mGRJdlGN25G-123">
          <mxGeometry y="150" width="210" height="40" as="geometry" />
        </mxCell>
        <mxCell id="evB92wIl7mGRJdlGN25G-134" value="| + Escolha(): int&amp;nbsp; &amp;nbsp; &amp;nbsp; &amp;nbsp; &amp;nbsp; &amp;nbsp; &amp;nbsp; &amp;nbsp;|" style="text;whiteSpace=wrap;html=1;" vertex="1" parent="evB92wIl7mGRJdlGN25G-123">
          <mxGeometry y="190" width="210" height="70" as="geometry" />
        </mxCell>
        <mxCell id="evB92wIl7mGRJdlGN25G-132" value="| + Falso(): void&amp;nbsp; &amp;nbsp; &amp;nbsp; &amp;nbsp; &amp;nbsp; &amp;nbsp; &amp;nbsp; &amp;nbsp; |" style="text;whiteSpace=wrap;html=1;" vertex="1" parent="evB92wIl7mGRJdlGN25G-123">
          <mxGeometry y="260" width="210" height="40" as="geometry" />
        </mxCell>
        <mxCell id="evB92wIl7mGRJdlGN25G-136" value="| + Mostra(tabu: Papel): void&amp;nbsp; &amp;nbsp; |" style="text;whiteSpace=wrap;html=1;" vertex="1" parent="evB92wIl7mGRJdlGN25G-123">
          <mxGeometry y="300" width="210" height="40" as="geometry" />
        </mxCell>
        <mxCell id="evB92wIl7mGRJdlGN25G-137" value="| + Joge(p: Player): int&amp;nbsp; &amp;nbsp; &amp;nbsp; &amp;nbsp; &amp;nbsp;|" style="text;whiteSpace=wrap;html=1;" vertex="1" parent="evB92wIl7mGRJdlGN25G-123">
          <mxGeometry y="340" width="210" height="40" as="geometry" />
        </mxCell>
        <mxCell id="evB92wIl7mGRJdlGN25G-135" value="&lt;br&gt;| + gamede(p: Player): void&amp;nbsp; &amp;nbsp; &amp;nbsp; |&lt;br style=&quot;border-color: var(--border-color); padding: 0px; margin: 0px;&quot;&gt;" style="text;whiteSpace=wrap;html=1;" vertex="1" parent="evB92wIl7mGRJdlGN25G-123">
          <mxGeometry y="380" width="210" height="40" as="geometry" />
        </mxCell>
        <mxCell id="evB92wIl7mGRJdlGN25G-138" value="| + vic(p: Player): void&amp;nbsp; &amp;nbsp; &amp;nbsp; &amp;nbsp; &amp;nbsp;|&lt;br&gt;+--------------------------------+" style="text;whiteSpace=wrap;html=1;" vertex="1" parent="evB92wIl7mGRJdlGN25G-123">
          <mxGeometry y="420" width="210" height="40" as="geometry" />
        </mxCell>
        <mxCell id="evB92wIl7mGRJdlGN25G-141" value="Text" style="text;html=1;align=center;verticalAlign=middle;resizable=0;points=[];autosize=1;strokeColor=none;fillColor=none;" vertex="1" parent="1">
          <mxGeometry x="1375" y="-1182" width="50" height="30" as="geometry" />
        </mxCell>
        <mxCell id="evB92wIl7mGRJdlGN25G-142" value="Paple" style="swimlane;fontStyle=0;childLayout=stackLayout;horizontal=1;startSize=26;fillColor=none;horizontalStack=0;resizeParent=1;resizeParentMax=0;resizeLast=0;collapsible=1;marginBottom=0;html=1;" vertex="1" parent="1">
          <mxGeometry x="910" y="-590" width="210" height="350" as="geometry" />
        </mxCell>
        <mxCell id="evB92wIl7mGRJdlGN25G-143" value="+--------------------------------+" style="text;strokeColor=none;fillColor=none;align=left;verticalAlign=top;spacingLeft=4;spacingRight=4;overflow=hidden;rotatable=0;points=[[0,0.5],[1,0.5]];portConstraint=eastwest;whiteSpace=wrap;html=1;" vertex="1" parent="evB92wIl7mGRJdlGN25G-142">
          <mxGeometry y="26" width="210" height="26" as="geometry" />
        </mxCell>
        <mxCell id="evB92wIl7mGRJdlGN25G-144" value="| - arry: string[9]&amp;nbsp; &amp;nbsp; &amp;nbsp; &amp;nbsp; &amp;nbsp; &amp;nbsp; &amp;nbsp; |" style="text;strokeColor=none;fillColor=none;align=left;verticalAlign=top;spacingLeft=4;spacingRight=4;overflow=hidden;rotatable=0;points=[[0,0.5],[1,0.5]];portConstraint=eastwest;whiteSpace=wrap;html=1;" vertex="1" parent="evB92wIl7mGRJdlGN25G-142">
          <mxGeometry y="52" width="210" height="26" as="geometry" />
        </mxCell>
        <mxCell id="evB92wIl7mGRJdlGN25G-152" value="+--------------------------------+" style="text;strokeColor=none;fillColor=none;align=left;verticalAlign=top;spacingLeft=4;spacingRight=4;overflow=hidden;rotatable=0;points=[[0,0.5],[1,0.5]];portConstraint=eastwest;whiteSpace=wrap;html=1;" vertex="1" parent="evB92wIl7mGRJdlGN25G-142">
          <mxGeometry y="78" width="210" height="26" as="geometry" />
        </mxCell>
        <mxCell id="evB92wIl7mGRJdlGN25G-149" value="| + Arry: string[]&amp;nbsp; &amp;nbsp; &amp;nbsp; &amp;nbsp; &amp;nbsp; &amp;nbsp; &amp;nbsp; &amp;nbsp;|" style="text;strokeColor=none;fillColor=none;align=left;verticalAlign=top;spacingLeft=4;spacingRight=4;overflow=hidden;rotatable=0;points=[[0,0.5],[1,0.5]];portConstraint=eastwest;whiteSpace=wrap;html=1;" vertex="1" parent="evB92wIl7mGRJdlGN25G-142">
          <mxGeometry y="104" width="210" height="26" as="geometry" />
        </mxCell>
        <mxCell id="evB92wIl7mGRJdlGN25G-154" value="+--------------------------------+" style="text;strokeColor=none;fillColor=none;align=left;verticalAlign=top;spacingLeft=4;spacingRight=4;overflow=hidden;rotatable=0;points=[[0,0.5],[1,0.5]];portConstraint=eastwest;whiteSpace=wrap;html=1;" vertex="1" parent="evB92wIl7mGRJdlGN25G-142">
          <mxGeometry y="130" width="210" height="26" as="geometry" />
        </mxCell>
        <mxCell id="evB92wIl7mGRJdlGN25G-153" value="| + Papel()&amp;nbsp; &amp;nbsp; &amp;nbsp; &amp;nbsp; &amp;nbsp; &amp;nbsp; &amp;nbsp; &amp;nbsp; &amp;nbsp; &amp;nbsp; &amp;nbsp; |" style="text;strokeColor=none;fillColor=none;align=left;verticalAlign=top;spacingLeft=4;spacingRight=4;overflow=hidden;rotatable=0;points=[[0,0.5],[1,0.5]];portConstraint=eastwest;whiteSpace=wrap;html=1;" vertex="1" parent="evB92wIl7mGRJdlGN25G-142">
          <mxGeometry y="156" width="210" height="26" as="geometry" />
        </mxCell>
        <mxCell id="evB92wIl7mGRJdlGN25G-146" value="| + jogada(corde: int,&amp;nbsp; &amp;nbsp; &amp;nbsp; &amp;nbsp; &amp;nbsp; &amp;nbsp;|" style="text;strokeColor=none;fillColor=none;align=left;verticalAlign=top;spacingLeft=4;spacingRight=4;overflow=hidden;rotatable=0;points=[[0,0.5],[1,0.5]];portConstraint=eastwest;whiteSpace=wrap;html=1;" vertex="1" parent="evB92wIl7mGRJdlGN25G-142">
          <mxGeometry y="182" width="210" height="26" as="geometry" />
        </mxCell>
        <mxCell id="evB92wIl7mGRJdlGN25G-150" value="|&amp;nbsp; &amp;nbsp;jogador: Player): bool&amp;nbsp; &amp;nbsp; &amp;nbsp; &amp;nbsp; |" style="text;strokeColor=none;fillColor=none;align=left;verticalAlign=top;spacingLeft=4;spacingRight=4;overflow=hidden;rotatable=0;points=[[0,0.5],[1,0.5]];portConstraint=eastwest;whiteSpace=wrap;html=1;" vertex="1" parent="evB92wIl7mGRJdlGN25G-142">
          <mxGeometry y="208" width="210" height="26" as="geometry" />
        </mxCell>
        <mxCell id="evB92wIl7mGRJdlGN25G-148" value="| + comparar(): bool&amp;nbsp; &amp;nbsp; &amp;nbsp; &amp;nbsp; &amp;nbsp; &amp;nbsp; &amp;nbsp;|" style="text;strokeColor=none;fillColor=none;align=left;verticalAlign=top;spacingLeft=4;spacingRight=4;overflow=hidden;rotatable=0;points=[[0,0.5],[1,0.5]];portConstraint=eastwest;whiteSpace=wrap;html=1;" vertex="1" parent="evB92wIl7mGRJdlGN25G-142">
          <mxGeometry y="234" width="210" height="26" as="geometry" />
        </mxCell>
        <mxCell id="evB92wIl7mGRJdlGN25G-147" value="+--------------------------------+" style="text;strokeColor=none;fillColor=none;align=left;verticalAlign=top;spacingLeft=4;spacingRight=4;overflow=hidden;rotatable=0;points=[[0,0.5],[1,0.5]];portConstraint=eastwest;whiteSpace=wrap;html=1;" vertex="1" parent="evB92wIl7mGRJdlGN25G-142">
          <mxGeometry y="260" width="210" height="90" as="geometry" />
        </mxCell>
        <mxCell id="evB92wIl7mGRJdlGN25G-162" value="Player" style="swimlane;fontStyle=0;childLayout=stackLayout;horizontal=1;startSize=26;fillColor=none;horizontalStack=0;resizeParent=1;resizeParentMax=0;resizeLast=0;collapsible=1;marginBottom=0;html=1;" vertex="1" parent="1">
          <mxGeometry x="1170" y="-560" width="170" height="236" as="geometry" />
        </mxCell>
        <mxCell id="evB92wIl7mGRJdlGN25G-164" value="+--------------------------------+" style="text;strokeColor=none;fillColor=none;align=left;verticalAlign=top;spacingLeft=4;spacingRight=4;overflow=hidden;rotatable=0;points=[[0,0.5],[1,0.5]];portConstraint=eastwest;whiteSpace=wrap;html=1;" vertex="1" parent="evB92wIl7mGRJdlGN25G-162">
          <mxGeometry y="26" width="170" height="26" as="geometry" />
        </mxCell>
        <mxCell id="evB92wIl7mGRJdlGN25G-165" value="| - Name: string&amp;nbsp; &amp;nbsp; &amp;nbsp; &amp;nbsp; &amp;nbsp; &amp;nbsp; &amp;nbsp; &amp;nbsp; &amp;nbsp;|" style="text;strokeColor=none;fillColor=none;align=left;verticalAlign=top;spacingLeft=4;spacingRight=4;overflow=hidden;rotatable=0;points=[[0,0.5],[1,0.5]];portConstraint=eastwest;whiteSpace=wrap;html=1;" vertex="1" parent="evB92wIl7mGRJdlGN25G-162">
          <mxGeometry y="52" width="170" height="26" as="geometry" />
        </mxCell>
        <mxCell id="evB92wIl7mGRJdlGN25G-170" value="&lt;span style=&quot;color: rgb(0, 0, 0); font-family: Helvetica; font-size: 12px; font-style: normal; font-variant-ligatures: normal; font-variant-caps: normal; font-weight: 400; letter-spacing: normal; orphans: 2; text-align: left; text-indent: 0px; text-transform: none; widows: 2; word-spacing: 0px; -webkit-text-stroke-width: 0px; background-color: rgb(251, 251, 251); text-decoration-thickness: initial; text-decoration-style: initial; text-decoration-color: initial; float: none; display: inline !important;&quot;&gt;| - simbulo: string&amp;nbsp; &amp;nbsp; &amp;nbsp; &amp;nbsp; &amp;nbsp; &amp;nbsp; &amp;nbsp; &amp;nbsp;|&lt;/span&gt;&lt;br style=&quot;border-color: var(--border-color); padding: 0px; margin: 0px; color: rgb(0, 0, 0); font-family: Helvetica; font-size: 12px; font-style: normal; font-variant-ligatures: normal; font-variant-caps: normal; font-weight: 400; letter-spacing: normal; orphans: 2; text-align: left; text-indent: 0px; text-transform: none; widows: 2; word-spacing: 0px; -webkit-text-stroke-width: 0px; background-color: rgb(251, 251, 251); text-decoration-thickness: initial; text-decoration-style: initial; text-decoration-color: initial;&quot;&gt;" style="text;whiteSpace=wrap;html=1;" vertex="1" parent="evB92wIl7mGRJdlGN25G-162">
          <mxGeometry y="78" width="170" height="40" as="geometry" />
        </mxCell>
        <mxCell id="evB92wIl7mGRJdlGN25G-169" value="+--------------------------------+" style="text;whiteSpace=wrap;html=1;" vertex="1" parent="evB92wIl7mGRJdlGN25G-162">
          <mxGeometry y="118" width="170" height="22" as="geometry" />
        </mxCell>
        <mxCell id="evB92wIl7mGRJdlGN25G-167" value="| + DefiNome(set: string)&amp;nbsp; &amp;nbsp; &amp;nbsp; &amp;nbsp; |" style="text;whiteSpace=wrap;html=1;" vertex="1" parent="evB92wIl7mGRJdlGN25G-162">
          <mxGeometry y="140" width="170" height="20" as="geometry" />
        </mxCell>
        <mxCell id="evB92wIl7mGRJdlGN25G-168" value="+--------------------------------+" style="text;whiteSpace=wrap;html=1;" vertex="1" parent="evB92wIl7mGRJdlGN25G-162">
          <mxGeometry y="160" width="170" height="30" as="geometry" />
        </mxCell>
        <mxCell id="evB92wIl7mGRJdlGN25G-163" value="| + Player(sim: string)&amp;nbsp; &amp;nbsp; &amp;nbsp; &amp;nbsp; &amp;nbsp; |" style="text;strokeColor=none;fillColor=none;align=left;verticalAlign=top;spacingLeft=4;spacingRight=4;overflow=hidden;rotatable=0;points=[[0,0.5],[1,0.5]];portConstraint=eastwest;whiteSpace=wrap;html=1;" vertex="1" parent="evB92wIl7mGRJdlGN25G-162">
          <mxGeometry y="190" width="170" height="26" as="geometry" />
        </mxCell>
        <mxCell id="evB92wIl7mGRJdlGN25G-171" value="+--------------------------------+" style="text;whiteSpace=wrap;html=1;" vertex="1" parent="evB92wIl7mGRJdlGN25G-162">
          <mxGeometry y="216" width="170" height="20" as="geometry" />
        </mxCell>
        <mxCell id="evB92wIl7mGRJdlGN25G-175" value="Program&amp;nbsp;" style="swimlane;fontStyle=0;childLayout=stackLayout;horizontal=1;startSize=26;fillColor=none;horizontalStack=0;resizeParent=1;resizeParentMax=0;resizeLast=0;collapsible=1;marginBottom=0;html=1;" vertex="1" parent="1">
          <mxGeometry x="300" y="-690" width="210" height="120" as="geometry" />
        </mxCell>
        <mxCell id="evB92wIl7mGRJdlGN25G-176" value="+--------------------------------+" style="text;strokeColor=none;fillColor=none;align=left;verticalAlign=top;spacingLeft=4;spacingRight=4;overflow=hidden;rotatable=0;points=[[0,0.5],[1,0.5]];portConstraint=eastwest;whiteSpace=wrap;html=1;" vertex="1" parent="evB92wIl7mGRJdlGN25G-175">
          <mxGeometry y="26" width="210" height="26" as="geometry" />
        </mxCell>
        <mxCell id="evB92wIl7mGRJdlGN25G-177" value="|+Main()&amp;nbsp; &amp;nbsp; &amp;nbsp; &amp;nbsp; &amp;nbsp; &amp;nbsp; &amp;nbsp; &amp;nbsp; &amp;nbsp; &amp;nbsp; &amp;nbsp;|" style="text;strokeColor=none;fillColor=none;align=left;verticalAlign=top;spacingLeft=4;spacingRight=4;overflow=hidden;rotatable=0;points=[[0,0.5],[1,0.5]];portConstraint=eastwest;whiteSpace=wrap;html=1;" vertex="1" parent="evB92wIl7mGRJdlGN25G-175">
          <mxGeometry y="52" width="210" height="26" as="geometry" />
        </mxCell>
        <mxCell id="evB92wIl7mGRJdlGN25G-178" value="+----------------------------------------+" style="text;strokeColor=none;fillColor=none;align=left;verticalAlign=top;spacingLeft=4;spacingRight=4;overflow=hidden;rotatable=0;points=[[0,0.5],[1,0.5]];portConstraint=eastwest;whiteSpace=wrap;html=1;" vertex="1" parent="evB92wIl7mGRJdlGN25G-175">
          <mxGeometry y="78" width="210" height="42" as="geometry" />
        </mxCell>
      </root>
    </mxGraphModel>
  </diagram>
</mxfile>
